<svg xmlns="http://www.w3.org/2000/svg" viewBox="0 0 113.5 237.04"><g id="Layer_2" data-name="Layer 2"><g id="Layer_1-2" data-name="Layer 1"><path d="M94.35,186.05,23.24,78.72A43.69,43.69,0,0,1,16.3,55.07V53.43a43.77,43.77,0,0,1,87.53,0v.63a43.67,43.67,0,0,1-6.71,23.28L71.34,118" style="fill:none;stroke:#010101;stroke-miterlimit:10;stroke-width:0.522403700221848px"/><path d="M65.79,109.14,89.18,72.3a34.31,34.31,0,0,0,5.24-18.24v-.63a34.36,34.36,0,1,0-68.71,0v1.64A34.22,34.22,0,0,0,31,73.34" style="fill:none;stroke:#010101;stroke-miterlimit:10;stroke-width:0.522403700221848px"/><line x1="44.67" y1="125.46" x2="43.92" y2="124.4" style="fill:none;stroke:#010101;stroke-linecap:round;stroke-miterlimit:10;stroke-width:0.522403700221848px"/><path d="M42.42,122.27,15.53,84.12l-.2-.31A53.07,53.07,0,0,1,6.89,55.07V53.43a53.18,53.18,0,0,1,106.35,0v.63a53.14,53.14,0,0,1-8.15,28.29L78,124.12" style="fill:none;stroke:#010101;stroke-linecap:round;stroke-miterlimit:10;stroke-width:0.522403700221848px;stroke-dasharray:2.599440574645996,2.599440574645996"/><line x1="77.3" y1="125.21" x2="76.59" y2="126.31" style="fill:none;stroke:#010101;stroke-linecap:round;stroke-miterlimit:10;stroke-width:0.522403700221848px"/><line x1="75.46" y1="111.58" x2="76.21" y2="112.65" style="fill:none;stroke:#010101;stroke-linecap:round;stroke-miterlimit:10;stroke-width:0.522403700221848px"/><path d="M77.71,114.77l26.89,38.15.2.31A53.07,53.07,0,0,1,113.24,182v1.64a53.18,53.18,0,0,1-106.35,0V183A53.14,53.14,0,0,1,15,154.69l27.08-41.77" style="fill:none;stroke:#010101;stroke-linecap:round;stroke-miterlimit:10;stroke-width:0.522403700221848px;stroke-dasharray:2.599440574645996,2.599440574645996"/><line x1="42.83" y1="111.83" x2="43.54" y2="110.73" style="fill:none;stroke:#010101;stroke-linecap:round;stroke-miterlimit:10;stroke-width:0.522403700221848px"/><path d="M60.07,19.07h0A34.36,34.36,0,0,0,25.71,53.43v1.64a34.36,34.36,0,0,0,5.45,18.57l28.91,45" style="fill:none;stroke:#010101;stroke-miterlimit:10;stroke-width:0.522403700221848px"/><line x1="94.42" y1="54.06" x2="94.42" y2="53.43" style="fill:none;stroke:#ececec;stroke-miterlimit:10;stroke-width:0.522403700221848px"/><path d="M26.4,46.54l70.49,112a43.69,43.69,0,0,1,6.94,23.65v1.64a43.77,43.77,0,0,1-87.53,0v-.63A43.67,43.67,0,0,1,23,159.94l31.44-50" style="fill:none;stroke:#010101;stroke-miterlimit:10;stroke-width:0.522403700221848px"/><path d="M60.07,118.64,31,164.94a34.39,34.39,0,0,0-5.26,18.28v.63a34.36,34.36,0,0,0,34.36,34.36h0a34.36,34.36,0,0,0,34.35-34.36v-1.64A34.36,34.36,0,0,0,89,163.64Z" style="fill:none;stroke:#010101;stroke-miterlimit:10;stroke-width:0.522403700221848px"/><circle cx="60.07" cy="53.63" r="53.17" style="fill:none;stroke:#010101;stroke-miterlimit:10;stroke-width:0.261201850110925px;opacity:0.53"/><circle cx="60.07" cy="183.1" r="53.17" style="fill:none;stroke:#010101;stroke-miterlimit:10;stroke-width:0.261201850110925px;opacity:0.53"/><circle cx="60.07" cy="118.64" r="53.17" style="fill:none;stroke:#010101;stroke-miterlimit:10;stroke-width:0.261201850110925px;opacity:0.53"/><circle cx="103.29" cy="46.54" r="6.89" style="fill:#23336a"/><circle cx="6.89" cy="46.54" r="6.89" style="fill:#f36c27"/><circle cx="60.44" cy="19.07" r="6.89" style="fill:none;stroke:#010101;stroke-miterlimit:10;stroke-width:0.522403700221848px"/><circle cx="103.29" cy="189.99" r="6.89" style="fill:#f36c27"/><circle cx="6.89" cy="189.99" r="6.89" style="fill:#23336a"/><circle cx="60.44" cy="217.46" r="6.89" style="fill:none;stroke:#010101;stroke-miterlimit:10;stroke-width:0.522403700221848px"/></g></g></svg>