<svg xmlns="http://www.w3.org/2000/svg" viewBox="0 0 544.93 260.92"><g id="Layer_2" data-name="Layer 2"><g id="Layer_1-2" data-name="Layer 1"><path d="M427.7,44,181,207.49a100.45,100.45,0,0,1-54.38,16h-3.76a100.62,100.62,0,1,1,0-201.23h1.43A100.51,100.51,0,0,1,177.8,37.65l93.37,59.27" style="fill:none;stroke:#000;stroke-miterlimit:10;stroke-width:1.20093500614166px"/><path d="M250.91,109.67,166.21,55.9a78.86,78.86,0,0,0-41.94-12h-1.43a79,79,0,1,0,0,158h3.76a78.86,78.86,0,0,0,42-12.09" style="fill:none;stroke:#000;stroke-miterlimit:10;stroke-width:1.20093500614166px"/><line x1="288.42" y1="158.23" x2="285.97" y2="159.96" style="fill:none;stroke:#000;stroke-linecap:round;stroke-miterlimit:10;stroke-width:1.20093500614166px"/><path d="M281.08,163.4l-87.69,61.81-.73.47a121.93,121.93,0,0,1-66.06,19.39h-3.76A122.24,122.24,0,1,1,122.84.6h1.43a122,122,0,0,1,65,18.74l96,62.24" style="fill:none;stroke:#000;stroke-linecap:round;stroke-miterlimit:10;stroke-width:1.20093500614166px;stroke-dasharray:5.976672172546387,5.976672172546387"/><line x1="287.84" y1="83.21" x2="290.36" y2="84.84" style="fill:none;stroke:#000;stroke-linecap:round;stroke-miterlimit:10;stroke-width:1.20093500614166px"/><line x1="256.5" y1="87.44" x2="258.96" y2="85.71" style="fill:none;stroke:#000;stroke-linecap:round;stroke-miterlimit:10;stroke-width:1.20093500614166px"/><path d="M263.84,82.27l87.7-61.81.72-.47A122,122,0,0,1,418.33.6h3.76a122.24,122.24,0,0,1,0,244.47h-1.44a122.16,122.16,0,0,1-65-18.73l-96-62.25" style="fill:none;stroke:#000;stroke-linecap:round;stroke-miterlimit:10;stroke-width:1.20093500614166px;stroke-dasharray:5.976672172546387,5.976672172546387"/><line x1="257.08" y1="162.46" x2="254.56" y2="160.83" style="fill:none;stroke:#000;stroke-linecap:round;stroke-miterlimit:10;stroke-width:1.20093500614166px"/><path d="M43.85,122.84h0a79,79,0,0,0,79,79h3.76a79,79,0,0,0,42.69-12.53l103.45-66.45" style="fill:none;stroke:#000;stroke-miterlimit:10;stroke-width:1.20093500614166px"/><path d="M107,200.23l257.51-162a100.35,100.35,0,0,1,54.38-16h3.76a100.62,100.62,0,0,1,0,201.23H421.2A100.44,100.44,0,0,1,367.68,208l-115-72.28" style="fill:none;stroke:#000;stroke-miterlimit:10;stroke-width:1.20093500614166px"/><path d="M272.74,122.84l106.44,66.88a79,79,0,0,0,42,12.1h1.44a79,79,0,0,0,79-79h0a79,79,0,0,0-79-79h-3.76a79,79,0,0,0-42.69,12.53Z" style="fill:none;stroke:#000;stroke-miterlimit:10;stroke-width:1.20093500614166px"/><circle cx="123.28" cy="122.84" r="122.24" style="fill:none;stroke:#000;stroke-miterlimit:10;stroke-width:0.600467503070831px;opacity:0.53"/><circle cx="420.92" cy="122.84" r="122.24" style="fill:none;stroke:#000;stroke-miterlimit:10;stroke-width:0.600467503070831px;opacity:0.53"/><circle cx="272.74" cy="122.84" r="122.24" style="fill:none;stroke:#000;stroke-miterlimit:10;stroke-width:0.600467503070831px;opacity:0.53"/><circle cx="106.99" cy="23.48" r="15.85" style="fill:#25326a"/><circle cx="106.99" cy="245.07" r="15.85" style="fill:#f26b26"/><circle cx="43.85" cy="121.98" r="15.85" style="fill:none;stroke:#000;stroke-miterlimit:10;stroke-width:1.20093500614166px"/><circle cx="436.77" cy="23.48" r="15.85" style="fill:#f26b26"/><circle cx="436.77" cy="245.07" r="15.85" style="fill:#25326a"/><circle cx="499.91" cy="121.98" r="15.85" style="fill:none;stroke:#000;stroke-miterlimit:10;stroke-width:1.20093500614166px"/></g></g></svg>