<svg xmlns="http://www.w3.org/2000/svg" viewBox="0 0 179.86 157.57"><g id="Layer_2" data-name="Layer 2"><g id="Layer_1-2" data-name="Layer 1"><path d="M.74,157.57a.74.74,0,0,1-.74-.73c0-.46,0-.91,0-1.36a.73.73,0,0,1,.75-.73.74.74,0,0,1,.72.75c0,.45,0,.89,0,1.34A.73.73,0,0,1,.74,157.57Zm178.38-5.83a.73.73,0,0,1-.73-.69c0-.44-.06-.89-.1-1.33a.74.74,0,0,1,1.47-.12c0,.45.07.9.1,1.36a.74.74,0,0,1-.69.78ZM1.23,148.17H1.15a.73.73,0,0,1-.66-.81c.05-.45.1-.9.16-1.35a.72.72,0,0,1,.81-.64.74.74,0,0,1,.65.82c-.06.44-.1.88-.15,1.33A.74.74,0,0,1,1.23,148.17ZM178,142.38a.73.73,0,0,1-.72-.61l-.24-1.31a.74.74,0,0,1,.59-.86.73.73,0,0,1,.86.59l.24,1.33a.73.73,0,0,1-.6.85ZM2.7,138.86H2.55A.75.75,0,0,1,2,138c.09-.44.19-.88.29-1.32a.74.74,0,1,1,1.44.33c-.1.43-.2.86-.29,1.3A.73.73,0,0,1,2.7,138.86Zm173.24-5.66a.74.74,0,0,1-.71-.54c-.12-.43-.24-.86-.37-1.28a.74.74,0,1,1,1.41-.42c.13.43.26.86.38,1.3a.73.73,0,0,1-.51.91A.64.64,0,0,1,175.94,133.2ZM5.15,129.77a1,1,0,0,1-.23,0,.75.75,0,0,1-.47-.93c.14-.43.29-.86.44-1.29a.74.74,0,1,1,1.39.48c-.15.42-.29.84-.43,1.27A.74.74,0,0,1,5.15,129.77Zm167.75-5.49a.75.75,0,0,1-.69-.46c-.16-.41-.33-.82-.5-1.23a.74.74,0,1,1,1.36-.57l.51,1.25a.74.74,0,0,1-.41,1A.86.86,0,0,1,172.9,124.28ZM8.56,121a.8.8,0,0,1-.3-.06.74.74,0,0,1-.37-1q.27-.62.57-1.23a.73.73,0,1,1,1.33.62c-.19.41-.38.81-.56,1.22A.73.73,0,0,1,8.56,121Zm160.37-5.23a.72.72,0,0,1-.65-.39c-.21-.39-.42-.78-.64-1.17a.74.74,0,1,1,1.29-.71c.22.4.44.79.65,1.19a.74.74,0,0,1-.31,1A.71.71,0,0,1,168.93,115.74Zm-156-3.15a.69.69,0,0,1-.37-.1.74.74,0,0,1-.27-1c.23-.39.46-.78.7-1.16a.74.74,0,0,1,1.26.76l-.69,1.15A.73.73,0,0,1,12.88,112.59Zm151.2-4.92a.75.75,0,0,1-.62-.32c-.24-.37-.5-.74-.75-1.1a.75.75,0,0,1,.18-1,.74.74,0,0,1,1,.19l.77,1.11a.76.76,0,0,1-.2,1A.78.78,0,0,1,164.08,107.67Zm-146-3a.71.71,0,0,1-.44-.15.74.74,0,0,1-.16-1l.82-1.08a.73.73,0,0,1,1-.15.75.75,0,0,1,.14,1c-.27.35-.54.71-.8,1.07A.75.75,0,0,1,18.06,104.72Zm140.34-4.57a.73.73,0,0,1-.56-.26l-.87-1a.74.74,0,0,1,.07-1,.73.73,0,0,1,1,.07c.3.34.59.69.88,1a.73.73,0,0,1-.08,1A.72.72,0,0,1,158.4,100.15ZM24,97.43a.7.7,0,0,1-.49-.19.73.73,0,0,1-.05-1c.3-.34.61-.67.92-1a.74.74,0,1,1,1.07,1l-.9,1A.75.75,0,0,1,24,97.43ZM152,93.27a.71.71,0,0,1-.51-.21l-1-.92a.73.73,0,1,1,1-1.07l1,.93a.74.74,0,0,1,0,1A.75.75,0,0,1,152,93.27ZM30.74,90.81a.71.71,0,0,1-.55-.25.73.73,0,0,1,.06-1l1-.89a.73.73,0,1,1,1,1.11l-1,.88A.72.72,0,0,1,30.74,90.81ZM144.85,87.1a.69.69,0,0,1-.45-.16l-1.06-.81a.74.74,0,0,1,.88-1.18l1.08.83a.73.73,0,0,1,.13,1A.72.72,0,0,1,144.85,87.1ZM38.1,84.93a.74.74,0,0,1-.43-1.34l1.11-.78A.74.74,0,0,1,39.62,84l-1.09.77A.76.76,0,0,1,38.1,84.93Zm99-3.23a.7.7,0,0,1-.39-.11l-1.14-.7a.73.73,0,0,1-.25-1,.74.74,0,0,1,1-.25l1.16.71a.74.74,0,0,1-.39,1.36ZM46,79.86a.74.74,0,0,1-.37-1.38l1.18-.66a.74.74,0,0,1,1,.29.73.73,0,0,1-.29,1l-1.16.65A.7.7,0,0,1,46,79.86Zm82.82-2.7a.79.79,0,0,1-.32-.08l-1.21-.57a.74.74,0,0,1,.62-1.34l1.24.59a.74.74,0,0,1,.34,1A.75.75,0,0,1,128.86,77.16Zm-74.4-1.51a.74.74,0,0,1-.67-.44.72.72,0,0,1,.38-1l1.24-.53a.72.72,0,0,1,1,.4.73.73,0,0,1-.39,1l-1.23.52A.72.72,0,0,1,54.46,75.65Zm65.71-2.15a.77.77,0,0,1-.25,0L118.66,73a.74.74,0,0,1,.47-1.4l1.29.46a.73.73,0,0,1-.25,1.42ZM63.28,72.36a.74.74,0,0,1-.22-1.44c.43-.13.86-.27,1.3-.39a.72.72,0,0,1,.91.49.74.74,0,0,1-.49.92c-.43.12-.85.25-1.28.39A.83.83,0,0,1,63.28,72.36Zm47.86-1.56-.17,0-1.3-.31A.73.73,0,1,1,110,69l1.33.31a.74.74,0,0,1,.54.89A.75.75,0,0,1,111.14,70.8ZM72.41,70a.73.73,0,0,1-.15-1.45l1.34-.26a.72.72,0,0,1,.85.59.74.74,0,0,1-.59.86L72.55,70Zm29.47-1h-.09l-1.33-.16a.74.74,0,1,1,.17-1.47l1.35.17a.74.74,0,0,1-.1,1.47Zm-20.15-.4a.74.74,0,0,1-.07-1.47L83,67.08a.75.75,0,0,1,.8.68.74.74,0,0,1-.68.79l-1.33.11Zm10.76-.35h0l-1.33,0a.74.74,0,1,1,0-1.47l1.36,0a.74.74,0,0,1,0,1.47Z" style="fill:#282828"/><path d="M167.17,156.84h2A79.23,79.23,0,0,0,90.52,77.71V0h-1V77.71a79.23,79.23,0,0,0-78.64,79.13h2A77.22,77.22,0,0,1,89.52,79.71V89.6a67.32,67.32,0,0,0-66.75,67.24h1A66.32,66.32,0,0,1,89.52,90.6v42.55a23.73,23.73,0,0,0-23.2,23.69h1a22.73,22.73,0,0,1,22.2-22.69v22.69h1V134.15a22.73,22.73,0,0,1,22.21,22.69h1a23.73,23.73,0,0,0-23.21-23.69V90.6a66.32,66.32,0,0,1,65.76,66.24h1A67.32,67.32,0,0,0,90.52,89.6V79.71A77.23,77.23,0,0,1,167.17,156.84Z" style="fill:#232323"/></g></g></svg>